<svg width="48" height="40" viewBox="0 0 48 40" fill="none" xmlns="http://www.w3.org/2000/svg">
<path id="Twitter" fill-rule="evenodd" clip-rule="evenodd" d="M48 4.73528C46.2363 5.53846 44.3374 6.08162 42.3455 6.3243C44.3796 5.0762 45.9405 3.09715 46.6758 0.739617C44.7713 1.89527 42.6667 2.73601 40.4184 3.18671C38.6265 1.22499 36.0655 0 33.2312 0C27.7964 0 23.3872 4.52149 23.3872 10.0975C23.3872 10.8891 23.4717 11.6576 23.6408 12.3973C15.4562 11.9754 8.20144 7.95955 3.34143 1.84326C2.4934 3.33983 2.0088 5.0762 2.0088 6.92524C2.0088 10.4269 3.74714 13.5182 6.38986 15.3297C4.77831 15.2806 3.25691 14.8212 1.9271 14.0701V14.1943C1.9271 19.0885 5.32206 23.1708 9.8299 24.0953C9.0044 24.3322 8.13383 24.4507 7.23508 24.4507C6.60116 24.4507 5.98133 24.39 5.38123 24.2716C6.63497 28.2817 10.2694 31.2026 14.58 31.2806C11.2104 33.9906 6.96179 35.6056 2.34971 35.6056C1.5552 35.6056 0.769149 35.5594 0 35.467C4.35851 38.3272 9.53689 40 15.0956 40C33.2115 40 43.1146 24.6154 43.1146 11.2705C43.1146 10.8313 43.1062 10.3922 43.0893 9.96172C45.0136 8.53738 46.6843 6.76056 48 4.73528" fill="#00AAEC"/>
</svg>
